<?xml version="1.0" encoding="utf-8"?>
<!-- Generator: Adobe Illustrator 22.1.0, SVG Export Plug-In . SVG Version: 6.00 Build 0)  -->
<svg version="1.1" xmlns="http://www.w3.org/2000/svg" xmlns:xlink="http://www.w3.org/1999/xlink" x="0px" y="0px"
	 viewBox="0 0 504 324" style="enable-background:new 0 0 504 324;" xml:space="preserve">
<style type="text/css">
	.st0{fill:none;stroke:#1B75BC;stroke-miterlimit:10;}
	.st1{display:none;fill:none;stroke:#1B75BC;stroke-miterlimit:10;}
	.st2{fill:none;stroke:#EF4136;stroke-miterlimit:10;}
	.st3{fill:#FFFFFF;}
	.st4{fill:none;stroke:#808285;stroke-width:2;stroke-miterlimit:10;}
	.st5{fill:#808285;}
	.st6{fill:none;stroke:#808285;stroke-width:2;stroke-miterlimit:10;stroke-dasharray:8.2633,6.1975;}
	.st7{fill:none;stroke:#808285;stroke-width:2;stroke-miterlimit:10;stroke-dasharray:7.8146,5.861;}
	.st8{fill:none;stroke:#808285;stroke-width:2;stroke-miterlimit:10;stroke-dasharray:6.1633,4.6225;}
	.st9{font-family:'Arial-BoldMT';}
	.st10{font-size:11px;}
	.st11{fill:#009444;}
	.st12{font-family:'Arial-BoldItalicMT';}
	.st13{fill:#1B75BC;}
	.st14{fill:#EF4136;}
	.st15{font-family:'ArialMT';}
	.st16{font-size:9px;}
	.st17{font-size:10px;}
</style>
<g id="Boxes">
	<g>
		<path class="st0" d="M27,144c-5,0-9-4.1-9-9V27c0-5,4-9,9-9h251.3c4.9,0,9,4,9,9v108c0,4.9-4.1,9-9,9H27z"/>
	</g>
	<rect x="357" y="15" transform="matrix(-1.836970e-16 1 -1 -1.836970e-16 501 -339)" class="st1" width="126" height="132"/>
	<g>
		<path class="st2" d="M468,306c5,0,9-4,9-9V189c0-4.9-4-9-9-9H354c-5,0-9,4.1-9,9v108c0,5,4,9,9,9H468z"/>
	</g>
	<rect x="21" y="177" transform="matrix(-4.491181e-11 1 -1 -4.491181e-11 327 159)" class="st1" width="126" height="132"/>
	<rect x="88.1" y="141" class="st3" width="33.4" height="6.7"/>
	
		<rect x="281.2" y="131.3" transform="matrix(6.123234e-17 -1 1 6.123234e-17 149.9649 423.4182)" class="st3" width="10.9" height="10.9"/>
	<rect x="285.2" y="87.4" class="st3" width="4.7" height="9.4"/>
	<rect x="285.2" y="32.4" class="st3" width="4.7" height="9.4"/>
	<rect x="340.3" y="182.3" class="st3" width="12.4" height="12.4"/>
	<rect x="340.8" y="261.1" class="st3" width="8.1" height="10.6"/>
</g>
<g id="Arrows">
	<g>
		<g>
			<line class="st4" x1="104.8" y1="44.8" x2="104.8" y2="77.8"/>
			<g>
				<polygon class="st5" points="101.1,75 104.8,76.6 108.5,75 104.8,83.8 				"/>
			</g>
		</g>
	</g>
	<g>
		<g>
			<line class="st4" x1="138.9" y1="92.2" x2="199.2" y2="92.2"/>
			<g>
				<polygon class="st5" points="196.4,95.9 197.9,92.2 196.4,88.5 205.1,92.2 				"/>
			</g>
		</g>
	</g>
	<g>
		<g>
			<line class="st4" x1="282" y1="92.2" x2="348" y2="92.2"/>
			<g>
				<polygon class="st5" points="345.2,95.9 346.8,92.2 345.2,88.5 354,92.2 				"/>
			</g>
		</g>
	</g>
	<g>
		<g>
			<line class="st4" x1="95.3" y1="197.7" x2="95.3" y2="227.1"/>
			<g>
				<polygon class="st5" points="91.6,224.3 95.3,225.8 99,224.3 95.3,233 				"/>
			</g>
		</g>
	</g>
	<g>
		<g>
			<line class="st4" x1="114.3" y1="203.6" x2="114.3" y2="233"/>
			<g>
				<polygon class="st5" points="110.6,206.4 114.3,204.9 118.1,206.4 114.3,197.7 				"/>
			</g>
		</g>
	</g>
	<g>
		<g>
			<line class="st4" x1="95.3" y1="250.3" x2="95.3" y2="278"/>
			<g>
				<polygon class="st5" points="91.6,275.2 95.3,276.7 99,275.2 95.3,283.9 				"/>
			</g>
		</g>
	</g>
	<g>
		<g>
			<line class="st4" x1="114.3" y1="256.3" x2="114.3" y2="283.9"/>
			<g>
				<polygon class="st5" points="110.6,259.1 114.3,257.5 118.1,259.1 114.3,250.3 				"/>
			</g>
		</g>
	</g>
	<g>
		<g>
			<line class="st4" x1="95.3" y1="101.9" x2="95.3" y2="156.4"/>
			<g>
				<polygon class="st5" points="91.6,153.6 95.3,155.1 99,153.6 95.3,162.3 				"/>
			</g>
		</g>
	</g>
	<g>
		<g>
			<line class="st4" x1="243.7" y1="101.9" x2="373.8" y2="212"/>
			<g>
				<polygon class="st5" points="369.2,213 372.8,211.2 374,207.3 378.3,215.8 				"/>
			</g>
		</g>
	</g>
	<g>
		<g>
			<line class="st4" x1="114.3" y1="107.8" x2="114.3" y2="162.3"/>
			<g>
				<polygon class="st5" points="110.6,110.6 114.3,109.1 118.1,110.6 114.3,101.9 				"/>
			</g>
		</g>
	</g>
	<g>
		<g>
			<line class="st4" x1="141.5" y1="293.5" x2="145.4" y2="293"/>
			<line class="st6" x1="151.6" y1="292.1" x2="349.2" y2="265.7"/>
			<line class="st4" x1="352.2" y1="265.2" x2="356.2" y2="264.7"/>
			<g>
				<polygon class="st5" points="353.9,268.8 355,264.9 352.9,261.4 362.1,263.9 				"/>
			</g>
		</g>
	</g>
	<g>
		<g>
			<line class="st4" x1="178.3" y1="37.1" x2="182.3" y2="37.1"/>
			<line class="st7" x1="188.2" y1="37.1" x2="404.1" y2="37.1"/>
			<polyline class="st4" points="407,37.1 411,37.1 411,41.1 			"/>
			<line class="st8" x1="411" y1="45.7" x2="411" y2="65"/>
			<line class="st4" x1="411" y1="67.3" x2="411" y2="71.3"/>
			<g>
				<polygon class="st5" points="181.1,40.8 179.6,37.1 181.1,33.4 172.4,37.1 				"/>
			</g>
		</g>
	</g>
</g>
<g id="Main_Text">
	<text transform="matrix(1 0 0 1 41.8081 40)" class="st9 st10">Experimental procedure</text>
	<text transform="matrix(1 0 0 1 74.22 96.1959)" class="st9 st10">Run Engine</text>
	<text transform="matrix(1 0 0 1 51.9026 177.9312)"><tspan x="0" y="0" class="st9 st10">Python abstractions </tspan><tspan x="0" y="13.2" class="st9 st10">of hardware (</tspan><tspan x="69.1" y="13.2" class="st11 st12 st10">ophyd</tspan><tspan x="102.1" y="13.2" class="st9 st10">)</tspan></text>
	<text transform="matrix(1 0 0 1 36.3186 245.2262)" class="st9 st10">Control Layer (e.g. EPICS)</text>
	<text transform="matrix(1 0 0 1 79.7063 295.7125)"><tspan x="0" y="0" class="st9 st10">Hardware </tspan><tspan x="-36.1" y="13.2" class="st9 st10">(e.g. motors, detectors)</tspan></text>
	<text transform="matrix(1 0 0 1 208.271 96.1959)" class="st9 st10">“Documents”</text>
	<text transform="matrix(1 0 0 1 356.2326 81.7958)"><tspan x="0" y="0" class="st9 st10">Live data processing </tspan><tspan x="3.1" y="13.2" class="st9 st10">(e.g. a live-updating </tspan><tspan x="18.7" y="26.4" class="st9 st10">table, plot, fit)</tspan></text>
	<text transform="matrix(1 0 0 1 131.4581 13)" class="st13 st12 st10">bluesky</text>
	<text transform="matrix(1 0 0 1 381.5532 174.765)" class="st14 st12 st10">databroker</text>
	<text transform="matrix(1 0 0 1 383.4839 225.6621)" class="st9 st10">Databases</text>
	<text transform="matrix(1 0 0 1 365.6522 267.3077)" class="st9 st10">Large file storage</text>
</g>
<g id="Side_Text_-_less">
	<text transform="matrix(1 9.000000e-03 -9.000000e-03 1 33.7024 118.0991)"><tspan x="0" y="0" class="st5 st15 st16">Interacts with </tspan><tspan x="16" y="10" class="st5 st15 st16">hardware</tspan></text>
	<text transform="matrix(1 9.000000e-03 -9.000000e-03 1 134.3591 60.1511)"><tspan x="0" y="0" class="st5 st15 st16">“Documents” with </tspan><tspan x="-8.5" y="10" class="st5 st15 st16">labeled metadata and </tspan><tspan x="-4.7" y="20" class="st5 st15 st16">data are dispatched</tspan></text>
	<text transform="matrix(1 9.000000e-03 -9.000000e-03 1 45.3806 217.1322)" class="st5 st15 st17">Set value</text>
	<text transform="matrix(1 9.000000e-03 -9.000000e-03 1 123.1451 217.5146)" class="st5 st15 st17">Read value</text>
	<text transform="matrix(1 9.000000e-03 -9.000000e-03 1 184.9697 260.7081)"><tspan x="0" y="0" class="st5 st15 st17">Large detectors write </tspan><tspan x="15.3" y="10" class="st5 st15 st17">directly to disk</tspan></text>
	<text transform="matrix(1 9.000000e-03 -9.000000e-03 1 308.0152 30.0429)" class="st5 st15 st17">Prompt feedback</text>
</g>
</svg>
